<?xml version="1.0" encoding="UTF-8" standalone="no"?>
<!-- Created with Inkscape (http://www.inkscape.org/) -->

<svg
   xmlns:dc="http://purl.org/dc/elements/1.1/"
   xmlns:cc="http://creativecommons.org/ns#"
   xmlns:rdf="http://www.w3.org/1999/02/22-rdf-syntax-ns#"
   xmlns:svg="http://www.w3.org/2000/svg"
   xmlns="http://www.w3.org/2000/svg"
   xmlns:sodipodi="http://sodipodi.sourceforge.net/DTD/sodipodi-0.dtd"
   xmlns:inkscape="http://www.inkscape.org/namespaces/inkscape"
   width="64"
   height="64"
   viewBox="0 0 16.933333 16.933334"
   version="1.1"
   id="svg8"
   inkscape:version="0.92.4 (5da689c313, 2019-01-14)"
   sodipodi:docname="arcmenu-lower-A -circle.svg">
  <defs
     id="defs2" />
  <sodipodi:namedview
     id="base"
     pagecolor="#ffffff"
     bordercolor="#666666"
     borderopacity="1.0"
     inkscape:pageopacity="0.0"
     inkscape:pageshadow="2"
     inkscape:zoom="7.9195959"
     inkscape:cx="1.8572002"
     inkscape:cy="36.601607"
     inkscape:document-units="mm"
     inkscape:current-layer="g83628"
     showgrid="false"
     units="px"
     showborder="true"
     inkscape:window-width="1920"
     inkscape:window-height="1017"
     inkscape:window-x="-8"
     inkscape:window-y="32"
     inkscape:window-maximized="1" />
  <metadata
     id="metadata5">
    <rdf:RDF>
      <cc:Work
         rdf:about="">
        <dc:format>image/svg+xml</dc:format>
        <dc:type
           rdf:resource="http://purl.org/dc/dcmitype/StillImage" />
        <dc:title />
      </cc:Work>
    </rdf:RDF>
  </metadata>
  <g
     inkscape:label="Layer 1"
     inkscape:groupmode="layer"
     id="layer1"
     transform="translate(0,-280.06665)">
    <g
       id="g83628"
       transform="matrix(0.05709354,0,0,0.05703853,9.6034111,278.29442)">
      <path
         style="fill:#999999;fill-opacity:1;stroke:none;stroke-width:11.26934433;stroke-miterlimit:4;stroke-dasharray:none;stroke-dashoffset:0;stroke-opacity:1"
         d="M -19.91572,34.266877 A 145.24027,145.24026 0 0 0 -165.14936,179.50844 145.24027,145.24026 0 0 0 -19.91572,324.74997 145.24027,145.24026 0 0 0 125.32893,179.50844 145.24027,145.24026 0 0 0 -19.91572,34.266877 Z m -11.619568,42.458951 c 34.0492079,0 58.054503,12.197498 77.408799,39.463132 V 81.384737 H 72.402654 V 277.62109 H 45.873511 v -34.44076 c -20.78794,27.98315 -42.2828611,39.11069 -75.615249,39.11069 -60.213342,0 -105.016272,-43.7653 -105.016272,-102.24293 0,-58.83637 44.443023,-103.322262 103.222722,-103.322262 z m 0.71522,24.395992 c -42.651112,0 -77.056672,34.43875 -77.056672,77.131 0,44.84483 34.04393,79.64221 78.487109,79.64221 42.292704,0 75.263142,-34.80372 75.263142,-79.28974 0,-43.76856 -33.684037,-77.48347 -76.693579,-77.48347 z"
         id="path83614-2"
         inkscape:connector-curvature="0" />
    </g>
  </g>
</svg>
