<?xml version="1.0" encoding="UTF-8" standalone="no"?>
<!-- Generator: Adobe Illustrator 19.0.0, SVG Export Plug-In . SVG Version: 6.00 Build 0)  -->

<svg
   xmlns:dc="http://purl.org/dc/elements/1.1/"
   xmlns:cc="http://creativecommons.org/ns#"
   xmlns:rdf="http://www.w3.org/1999/02/22-rdf-syntax-ns#"
   xmlns:svg="http://www.w3.org/2000/svg"
   xmlns="http://www.w3.org/2000/svg"
   xmlns:sodipodi="http://sodipodi.sourceforge.net/DTD/sodipodi-0.dtd"
   xmlns:inkscape="http://www.inkscape.org/namespaces/inkscape"
   version="1.1"
   id="Capa_1"
   x="0px"
   y="0px"
   viewBox="0 0 64.000001 64.000001"
   xml:space="preserve"
   sodipodi:docname="arc-menu-alt2-symbolic.svg"
   inkscape:version="0.92.4 (5da689c313, 2019-01-14)"
   width="64"
   height="64"><metadata
   id="metadata47"><rdf:RDF><cc:Work
       rdf:about=""><dc:format>image/svg+xml</dc:format><dc:type
         rdf:resource="http://purl.org/dc/dcmitype/StillImage" /><dc:title></dc:title></cc:Work></rdf:RDF></metadata><defs
   id="defs45" /><sodipodi:namedview
   pagecolor="#ffffff"
   bordercolor="#666666"
   borderopacity="1"
   objecttolerance="10"
   gridtolerance="10"
   guidetolerance="10"
   inkscape:pageopacity="0"
   inkscape:pageshadow="2"
   inkscape:window-width="1920"
   inkscape:window-height="1012"
   id="namedview43"
   showgrid="false"
   inkscape:zoom="8.8499936"
   inkscape:cx="43.872511"
   inkscape:cy="28.022631"
   inkscape:window-x="0"
   inkscape:window-y="32"
   inkscape:window-maximized="1"
   inkscape:current-layer="g6" />
<g
   id="g10"
   transform="translate(0,-362.66699)">
	<g
   id="g8">
		<g
   id="g6">
			<path
   d="m 31.99978,378.66622 c -8.831994,0 -15.999889,7.16791 -15.999889,15.99993 0,8.83201 7.167895,15.99993 15.999889,15.99993 8.831993,0 16.000183,-7.16821 16.000183,-16.00023 0,-8.83201 -7.16819,-15.99963 -16.000183,-15.99963 z m 0,8.47443 a 7.5254235,7.5254411 0 0 1 7.525482,7.5255 7.5254235,7.5254411 0 0 1 -7.525482,7.5255 7.5254235,7.5254411 0 0 1 -7.52519,-7.5255 7.5254235,7.5254411 0 0 1 7.52519,-7.5255 z"
   id="path2"
   style="fill:#cccccc;stroke-width:0.15000007"
   inkscape:connector-curvature="0" />
			<path
   d="M 31.999925,362.666 C 14.320039,362.666 0,376.98607 0,394.666 c 0,17.67993 14.320039,32 31.999925,32 17.679886,0 32.000075,-14.31992 32.000075,-32 0,-17.68008 -14.320039,-32 -32.000075,-32 z m 0,57.60009 c -14.143939,0 -25.60003,-11.45597 -25.60003,-25.60009 0,-14.14412 11.456091,-25.59994 25.60003,-25.59994 14.143939,0 25.60003,11.45597 25.60003,25.59994 0,14.14397 -11.455941,25.60009 -25.60003,25.60009 z"
   id="path4"
   style="fill:#cccccc;stroke-width:0.15000007"
   inkscape:connector-curvature="0" />
		</g>
	</g>
</g>
<g
   id="g12"
   transform="translate(0,-362.66699)">
</g>
<g
   id="g14"
   transform="translate(0,-362.66699)">
</g>
<g
   id="g16"
   transform="translate(0,-362.66699)">
</g>
<g
   id="g18"
   transform="translate(0,-362.66699)">
</g>
<g
   id="g20"
   transform="translate(0,-362.66699)">
</g>
<g
   id="g22"
   transform="translate(0,-362.66699)">
</g>
<g
   id="g24"
   transform="translate(0,-362.66699)">
</g>
<g
   id="g26"
   transform="translate(0,-362.66699)">
</g>
<g
   id="g28"
   transform="translate(0,-362.66699)">
</g>
<g
   id="g30"
   transform="translate(0,-362.66699)">
</g>
<g
   id="g32"
   transform="translate(0,-362.66699)">
</g>
<g
   id="g34"
   transform="translate(0,-362.66699)">
</g>
<g
   id="g36"
   transform="translate(0,-362.66699)">
</g>
<g
   id="g38"
   transform="translate(0,-362.66699)">
</g>
<g
   id="g40"
   transform="translate(0,-362.66699)">
</g>
</svg>