<?xml version="1.0" encoding="UTF-8" standalone="no"?>
<svg
   xmlns:dc="http://purl.org/dc/elements/1.1/"
   xmlns:cc="http://creativecommons.org/ns#"
   xmlns:rdf="http://www.w3.org/1999/02/22-rdf-syntax-ns#"
   xmlns:svg="http://www.w3.org/2000/svg"
   xmlns="http://www.w3.org/2000/svg"
   xmlns:sodipodi="http://sodipodi.sourceforge.net/DTD/sodipodi-0.dtd"
   xmlns:inkscape="http://www.inkscape.org/namespaces/inkscape"
   viewBox="0 0 64 64"
   version="1.1"
   id="svg4"
   sodipodi:docname="search-symbolic.svg"
   width="64"
   height="64"
   inkscape:version="0.92.4 (5da689c313, 2019-01-14)">
  <metadata
     id="metadata10">
    <rdf:RDF>
      <cc:Work
         rdf:about="">
        <dc:format>image/svg+xml</dc:format>
        <dc:type
           rdf:resource="http://purl.org/dc/dcmitype/StillImage" />
        <dc:title></dc:title>
      </cc:Work>
    </rdf:RDF>
  </metadata>
  <defs
     id="defs8" />
  <sodipodi:namedview
     pagecolor="#ffffff"
     bordercolor="#666666"
     borderopacity="1"
     objecttolerance="10"
     gridtolerance="10"
     guidetolerance="10"
     inkscape:pageopacity="0"
     inkscape:pageshadow="2"
     inkscape:window-width="1920"
     inkscape:window-height="1012"
     id="namedview6"
     showgrid="false"
     inkscape:zoom="5.2149125"
     inkscape:cx="16.603175"
     inkscape:cy="54.574121"
     inkscape:window-x="0"
     inkscape:window-y="32"
     inkscape:window-maximized="1"
     inkscape:current-layer="svg4" />
  <path
     d="M 62.973476,58.35182 42.722825,37.825276 c 2.758944,-3.848728 4.400516,-8.580316 4.400516,-13.684365 0,-12.842885 -10.304657,-23.29928035 -22.96821,-23.29928035 C 11.477782,0.82783065 1.1731261,11.284235 1.1731261,24.127115 1.1731261,36.97 11.477782,47.4264 24.141336,47.4264 c 5.490299,0 10.525371,-1.958847 14.484457,-5.2282 L 58.766085,62.628185 Z M 24.141336,42.046457 c -9.739073,0 -17.6710373,-8.042317 -17.6710373,-17.919342 0,-9.877019 7.9319643,-17.9193374 17.6710373,-17.9193374 9.739073,0 17.671037,8.0423184 17.671037,17.9193374 0,9.877025 -7.91817,17.919342 -17.671037,17.919342 z"
     id="path2"
     inkscape:connector-curvature="0"
     style="stroke-width:0.1379472;fill:#cccccc" />
</svg>
