<?xml version="1.0" encoding="UTF-8" standalone="no"?>
<svg
   xmlns:dc="http://purl.org/dc/elements/1.1/"
   xmlns:cc="http://creativecommons.org/ns#"
   xmlns:rdf="http://www.w3.org/1999/02/22-rdf-syntax-ns#"
   xmlns:svg="http://www.w3.org/2000/svg"
   xmlns="http://www.w3.org/2000/svg"
   xmlns:sodipodi="http://sodipodi.sourceforge.net/DTD/sodipodi-0.dtd"
   xmlns:inkscape="http://www.inkscape.org/namespaces/inkscape"
   viewBox="0 0 64 64"
   version="1.1"
   id="svg4"
   sodipodi:docname="whirl-circle-symbolic.svg"
   width="64"
   height="64"
   inkscape:version="0.92.4 (5da689c313, 2019-01-14)">
  <metadata
     id="metadata10">
    <rdf:RDF>
      <cc:Work
         rdf:about="">
        <dc:format>image/svg+xml</dc:format>
        <dc:type
           rdf:resource="http://purl.org/dc/dcmitype/StillImage" />
        <dc:title></dc:title>
      </cc:Work>
    </rdf:RDF>
  </metadata>
  <defs
     id="defs8" />
  <sodipodi:namedview
     pagecolor="#ffffff"
     bordercolor="#666666"
     borderopacity="1"
     objecttolerance="10"
     gridtolerance="10"
     guidetolerance="10"
     inkscape:pageopacity="0"
     inkscape:pageshadow="2"
     inkscape:window-width="1920"
     inkscape:window-height="1012"
     id="namedview6"
     showgrid="false"
     inkscape:zoom="7.375"
     inkscape:cx="3.1082274"
     inkscape:cy="36.126886"
     inkscape:window-x="0"
     inkscape:window-y="32"
     inkscape:window-maximized="1"
     inkscape:current-layer="svg4" />
  <path
     style="fill:#cccccc;stroke-width:3.37142849"
     d="M 32.40625 0.13476562 A 32 32 0 0 0 0.40625 32.134766 A 32 32 0 0 0 32.40625 64.134766 A 32 32 0 0 0 64.40625 32.134766 A 32 32 0 0 0 32.40625 0.13476562 z M 32.611328 10.947266 C 40.736235 11.10983 49.249352 12.392244 56.285156 14.380859 C 45.445934 15.43876 34.604028 18.904691 24.414062 24.337891 C 18.500529 24.710767 12.752121 25.661326 7.2851562 27.095703 C 6.662752 27.223591 6.0872124 26.779751 6.0996094 26.160156 L 6.3046875 15.835938 C 6.3210611 15.0176 6.8863817 14.280461 7.6855469 14.085938 C 15.621086 12.022622 24.00711 10.77511 32.611328 10.947266 z M 58.714844 15.095703 L 58.449219 28.388672 C 42.823203 29.035021 27.889497 35.928214 15.103516 43.683594 L 15.359375 30.976562 C 27.575565 22.472977 42.553868 16.175775 58.714844 15.095703 z M 36.027344 34.277344 C 39.959324 35.326718 43.758922 36.632276 47.447266 38.167969 C 41.302252 39.588782 35.542002 41.02889 29.955078 44.367188 C 25.714935 43.522162 21.356576 43.926258 16.833984 43.753906 C 24.006385 39.500021 30.205216 36.511588 36.027344 34.277344 z M 48.884766 38.78125 L 48.642578 50.880859 C 40.47089 53.056398 32.977907 56.355724 26.53125 61.162109 C 25.913987 61.61757 25.04729 61.132934 25.0625 60.373047 L 25.28125 49.476562 C 25.292947 48.892036 25.595675 48.314017 26.070312 47.972656 C 33.163691 42.992093 40.698585 40.51208 48.884766 38.78125 z "
     id="path3963" />
</svg>
