<?xml version="1.0" encoding="UTF-8" standalone="no"?>
<svg
   xmlns:dc="http://purl.org/dc/elements/1.1/"
   xmlns:cc="http://creativecommons.org/ns#"
   xmlns:rdf="http://www.w3.org/1999/02/22-rdf-syntax-ns#"
   xmlns:svg="http://www.w3.org/2000/svg"
   xmlns="http://www.w3.org/2000/svg"
   xmlns:sodipodi="http://sodipodi.sourceforge.net/DTD/sodipodi-0.dtd"
   xmlns:inkscape="http://www.inkscape.org/namespaces/inkscape"
   viewBox="0 0 64 64"
   version="1.1"
   id="svg4"
   sodipodi:docname="curve-a-symbolic.svg"
   width="64"
   height="64"
   inkscape:version="0.92.4 (5da689c313, 2019-01-14)">
  <metadata
     id="metadata10">
    <rdf:RDF>
      <cc:Work
         rdf:about="">
        <dc:format>image/svg+xml</dc:format>
        <dc:type
           rdf:resource="http://purl.org/dc/dcmitype/StillImage" />
        <dc:title></dc:title>
      </cc:Work>
    </rdf:RDF>
  </metadata>
  <defs
     id="defs8" />
  <sodipodi:namedview
     pagecolor="#ffffff"
     bordercolor="#666666"
     borderopacity="1"
     objecttolerance="10"
     gridtolerance="10"
     guidetolerance="10"
     inkscape:pageopacity="0"
     inkscape:pageshadow="2"
     inkscape:window-width="1920"
     inkscape:window-height="1012"
     id="namedview6"
     showgrid="false"
     inkscape:zoom="10.429825"
     inkscape:cx="46.260719"
     inkscape:cy="33.560985"
     inkscape:window-x="0"
     inkscape:window-y="32"
     inkscape:window-maximized="1"
     inkscape:current-layer="svg4" />
  <path
     d="m 32.285346,47.784705 c -3.413695,-4.283348 6.759764,-8.037873 6.094338,-11.25005 -3.049874,-11.901942 -5.145626,-11.38324 -8.195501,0.518703 -0.737108,3.2798 2.235335,2.675869 -1.106677,6.892946 z m 18.684705,9.904313 C 45.281461,60.165435 39.653733,56.217506 34.834797,50.86298 48.88721,33.271092 41.071147,23.8131 32.285346,23.8131 c -7.427897,0 -11.51784,6.290446 -9.911077,13.592566 0.937279,3.947929 3.412342,8.438208 7.361625,13.457314 -4.399663,4.87574 -8.189351,7.126293 -11.516487,7.427895 C 11.456937,59.295781 6.1673324,52.737534 8.5761249,45.971011 10.618391,40.674642 23.686188,14.704049 24.247473,13.30016 c 2.130179,-4.0669454 3.456975,-7.7633137 8.031109,-7.7633137 4.373967,0 5.869825,3.5083717 8.165008,8.0973817 4.868979,9.551312 12.084532,24.004065 15.532044,32.336783 1.781233,4.472696 -0.185294,9.641928 -5.005583,11.718007 z m 6.35672,-18.410149 C 39.895829,2.1799566 38.930149,1.6484255 32.285346,1.6484255 c -6.156553,0 -8.773629,4.2833478 -11.450215,9.8448035 C 6.4770535,40.208031 5.0853372,44.277685 4.9649649,44.632038 1.553975,54.008879 8.5815338,62.240162 17.08737,62.240162 c 2.936264,0 8.197467,-0.819613 15.197976,-8.439565 7.936435,8.626205 13.695354,8.439565 15.197975,8.439565 8.505834,0.0068 15.533395,-8.231283 12.1197,-17.608124 0.0028,-0.52612 -2.274892,-5.2612 -2.274892,-5.353169 z"
     id="path2"
     inkscape:connector-curvature="0"
     sodipodi:nodetypes="cccccccscccccsccccsccsccccc"
     style="fill:#cccccc;stroke-width:0.13524941" />
</svg>
